<svg width="128" height="126" viewBox="0 0 128 126" fill="none" xmlns="http://www.w3.org/2000/svg" xmlns:xlink="http://www.w3.org/1999/xlink">
<rect opacity="0.0344828" x="0.550835" y="-0.446033" width="78.9599" height="97.4583" transform="matrix(0.106906 -0.994269 0.994764 0.102203 11.6901 97.4275)" stroke="#E7E7E7" stroke-opacity="0.3"/>
<rect opacity="0.0689655" x="0.574084" y="-0.417063" width="78.9851" height="97.4287" transform="matrix(0.159942 -0.987126 0.988226 0.153 9.86304 94.7222)" stroke="#E7E7E7" stroke-opacity="0.3"/>
<rect opacity="0.103448" x="0.595785" y="-0.386867" width="79.02" height="97.3876" transform="matrix(0.212481 -0.977165 0.979089 0.203432 8.18149 91.9234)" stroke="#E7E7E7" stroke-opacity="0.3"/>
<rect opacity="0.137931" x="0.615865" y="-0.355524" width="79.0641" height="97.3355" transform="matrix(0.264361 -0.964424 0.967368 0.253377 6.6507 89.0394)" stroke="#E7E7E7" stroke-opacity="0.3"/>
<rect opacity="0.172414" x="0.634254" y="-0.323119" width="79.117" height="97.2729" transform="matrix(0.315426 -0.94895 0.953082 0.302712 5.27548 86.0768)" stroke="#E7E7E7" stroke-opacity="0.3"/>
<rect opacity="0.206897" x="0.650889" y="-0.289745" width="79.1781" height="97.2006" transform="matrix(0.365521 -0.930803 0.936258 0.351314 4.06032 83.0444)" stroke="#E7E7E7" stroke-opacity="0.3"/>
<rect opacity="0.241379" x="0.665713" y="-0.255494" width="79.2467" height="97.1193" transform="matrix(0.414501 -0.910049 0.916924 0.399061 3.00882 79.9494)" stroke="#E7E7E7" stroke-opacity="0.3"/>
<rect opacity="0.275862" x="0.67867" y="-0.220467" width="79.3221" height="97.0299" transform="matrix(0.462223 -0.886764 0.895118 0.445829 2.1248 76.8014)" stroke="#E7E7E7" stroke-opacity="0.3"/>
<rect opacity="0.310345" x="0.689716" y="-0.184767" width="79.4033" height="96.9333" transform="matrix(0.508552 -0.861031 0.87088 0.491496 1.41117 73.6083)" stroke="#E7E7E7" stroke-opacity="0.3"/>
<rect opacity="0.344828" x="0.698809" y="-0.148501" width="79.4895" height="96.8306" transform="matrix(0.553362 -0.832941 0.844257 0.535938 0.870595 70.3799)" stroke="#E7E7E7" stroke-opacity="0.3"/>
<rect opacity="0.37931" x="0.705917" y="-0.111779" width="79.5797" height="96.7228" transform="matrix(0.59653 -0.802591 0.815304 0.579033 0.504898 67.124)" stroke="#E7E7E7" stroke-opacity="0.3"/>
<rect opacity="0.413793" x="0.711013" y="-0.0747116" width="79.6729" height="96.6112" transform="matrix(0.637945 -0.770082 0.784081 0.620659 0.316006 63.8507)" stroke="#E7E7E7" stroke-opacity="0.3"/>
<rect opacity="0.448276" x="0.714078" y="-0.0374136" width="79.7681" height="96.4969" transform="matrix(0.677501 -0.735521 0.750655 0.660694 0.304753 60.5687)" stroke="#E7E7E7" stroke-opacity="0.3"/>
<rect opacity="0.482759" x="0.715101" width="79.8643" height="96.3813" transform="matrix(0.715101 -0.699021 0.715101 0.699021 0.471934 57.2875)" stroke="#E7E7E7" stroke-opacity="0.3"/>
<rect opacity="0.517241" x="0.714078" y="0.0374136" width="79.9604" height="96.2655" transform="matrix(0.750655 -0.660694 0.677501 0.735521 0.817237 54.0173)" stroke="#E7E7E7" stroke-opacity="0.3"/>
<rect opacity="0.551724" x="0.711013" y="0.0747116" width="80.0552" height="96.1508" transform="matrix(0.784081 -0.620659 0.637945 0.770082 1.34053 50.7661)" stroke="#E7E7E7" stroke-opacity="0.3"/>
<rect opacity="0.586207" x="0.705917" y="0.111779" width="80.1479" height="96.0385" transform="matrix(0.815304 -0.579033 0.59653 0.802591 2.04043 47.5441)" stroke="#E7E7E7" stroke-opacity="0.3"/>
<rect opacity="0.62069" x="0.698809" y="0.148501" width="80.2374" height="95.9299" transform="matrix(0.844257 -0.535938 0.553362 0.832941 2.91528 44.3608)" stroke="#E7E7E7" stroke-opacity="0.3"/>
<rect opacity="0.655172" x="0.689716" y="0.184767" width="80.3227" height="95.8261" transform="matrix(0.87088 -0.491496 0.508552 0.861031 3.96343 41.2255)" stroke="#E7E7E7" stroke-opacity="0.3"/>
<rect opacity="0.689655" x="0.67867" y="0.220467" width="80.4029" height="95.7283" transform="matrix(0.895118 -0.445829 0.462223 0.886764 5.18165 38.1469)" stroke="#E7E7E7" stroke-opacity="0.3"/>
<rect opacity="0.724138" x="0.665713" y="0.255494" width="80.4772" height="95.6376" transform="matrix(0.916924 -0.399061 0.414501 0.910049 6.56709 35.1339)" stroke="#E7E7E7" stroke-opacity="0.3"/>
<rect opacity="0.758621" x="0.650889" y="0.289745" width="80.5447" height="95.555" transform="matrix(0.936258 -0.351314 0.365521 0.930803 8.11576 32.1965)" stroke="#E7E7E7" stroke-opacity="0.3"/>
<rect opacity="0.793103" x="0.634254" y="0.323119" width="80.6047" height="95.4814" transform="matrix(0.953082 -0.302712 0.315426 0.94895 9.82345 29.3428)" stroke="#E7E7E7" stroke-opacity="0.3"/>
<rect opacity="0.827586" x="0.615865" y="0.355524" width="80.6567" height="95.4176" transform="matrix(0.967368 -0.253377 0.264361 0.964424 11.6856 26.5808)" stroke="#E7E7E7" stroke-opacity="0.3"/>
<rect opacity="0.862069" x="0.595785" y="0.386867" width="80.6999" height="95.3645" transform="matrix(0.979089 -0.203432 0.212481 0.977165 13.6967 23.9191)" stroke="#E7E7E7" stroke-opacity="0.3"/>
<rect opacity="0.896552" x="0.574084" y="0.417063" width="80.734" height="95.3225" transform="matrix(0.988226 -0.153 0.159942 0.987126 15.8513 21.3652)" stroke="#E7E7E7" stroke-opacity="0.3"/>
<rect opacity="0.931035" x="0.550835" y="0.446033" width="80.7587" height="95.2922" transform="matrix(0.994764 -0.102203 0.106906 0.994269 18.1427 18.9275)" stroke="#E7E7E7" stroke-opacity="0.3"/>
<rect opacity="0.965517" x="0.526113" y="0.473702" width="80.7736" height="95.2738" transform="matrix(0.99869 -0.0511622 0.0535365 0.998566 20.565 16.6121)" stroke="#E7E7E7" stroke-opacity="0.3"/>
<rect x="23.6107" y="14.9268" width="80.7785" height="95.2677" stroke="#E7E7E7" stroke-opacity="0.3"/>
</svg>
