<svg width="128" height="136" viewBox="0 0 128 136" fill="none" xmlns="http://www.w3.org/2000/svg">
<g opacity="0.3">
<path opacity="0.0344828" d="M17.1648 32.2288C17.6086 31.6778 18.3189 31.2789 19.3941 31.1109C20.4777 30.9417 21.8705 31.0189 23.5645 31.3716C26.9517 32.0768 31.3404 33.8392 36.4477 36.5457C46.6479 41.9512 59.517 51.0162 72.6181 62.4676C85.7192 73.919 96.5239 85.5469 103.405 95.0723C106.851 99.8417 109.279 104.038 110.534 107.39C111.162 109.067 111.477 110.482 111.505 111.623C111.533 112.755 111.279 113.553 110.835 114.104C110.391 114.655 109.681 115.054 108.606 115.222C107.522 115.392 106.129 115.314 104.435 114.962C101.048 114.256 96.6593 112.494 91.5521 109.787C81.3519 104.382 68.4828 95.317 55.3817 83.8656C42.2806 72.4142 31.4759 60.7863 24.5944 51.2609C21.1488 46.4915 18.7206 42.2953 17.4657 38.9429C16.8381 37.2664 16.5232 35.8509 16.4951 34.71C16.4672 33.5777 16.7209 32.7798 17.1648 32.2288Z" stroke="#FFFFFD" stroke-width="2"/>
<path opacity="0.0689655" d="M20.7661 27.6134C21.252 27.1073 21.9907 26.7745 23.076 26.7048C24.1696 26.6345 25.5509 26.8379 27.2095 27.3432C30.5256 28.3535 34.7509 30.5081 39.6127 33.6682C49.3226 39.9797 61.3849 50.1791 73.4784 62.7769C85.5719 75.3746 95.3632 87.9398 101.422 98.0545C104.456 103.119 106.524 107.52 107.494 110.975C107.979 112.703 108.174 114.141 108.107 115.281C108.04 116.411 107.72 117.181 107.234 117.687C106.749 118.193 106.01 118.526 104.925 118.596C103.831 118.666 102.45 118.462 100.791 117.957C97.4749 116.947 93.2497 114.792 88.3879 111.632C78.678 105.321 66.6157 95.1211 54.5221 82.5234C42.4286 69.9257 32.6374 57.3605 26.5785 47.2458C23.5449 42.1813 21.4765 37.7799 20.5067 34.3255C20.0216 32.5978 19.8263 31.1588 19.8938 30.0197C19.9607 28.8891 20.2802 28.1196 20.7661 27.6134Z" stroke="#FFFFFD" stroke-width="2"/>
<path opacity="0.103448" d="M24.6965 23.3406C25.2202 22.8828 25.9818 22.6182 27.069 22.6473C28.1642 22.6765 29.5236 23.0046 31.134 23.6588C34.3538 24.9667 38.3834 27.4971 42.9627 31.0869C52.1083 38.2565 63.2719 49.5128 74.2657 63.161C85.2596 76.8092 93.9627 90.2162 99.1526 100.843C101.751 106.164 103.444 110.738 104.121 114.268C104.46 116.034 104.534 117.485 104.372 118.614C104.21 119.734 103.828 120.469 103.304 120.927C102.78 121.385 102.019 121.65 100.932 121.621C99.8363 121.591 98.4769 121.263 96.8664 120.609C93.6467 119.301 89.6171 116.771 85.0378 113.181C75.8922 106.011 64.7286 94.7549 53.7348 81.1068C42.7409 67.4586 34.0378 54.0516 28.8479 43.4244C26.2492 38.1034 24.5567 33.5301 23.8794 30C23.5406 28.2343 23.4665 26.7828 23.629 25.6541C23.7903 24.5338 24.1727 23.7985 24.6965 23.3406Z" stroke="#FFFFFD" stroke-width="2"/>
<path opacity="0.137931" d="M28.9261 19.4377C29.4835 19.0312 30.2622 18.8364 31.3429 18.9641C32.4315 19.0927 33.7585 19.543 35.3086 20.3411C38.4074 21.9367 42.2105 24.8239 46.4723 28.8161C54.9839 36.7893 65.1637 49.017 74.9741 63.6118C84.7845 78.2067 92.3333 92.3535 96.6146 103.412C98.7583 108.949 100.062 113.66 100.442 117.239C100.631 119.029 100.584 120.482 100.327 121.592C100.073 122.693 99.6309 123.389 99.0735 123.795C98.5161 124.202 97.7374 124.397 96.6567 124.269C95.5681 124.14 94.2411 123.69 92.691 122.892C89.5922 121.296 85.7891 118.409 81.5273 114.417C73.0157 106.444 62.8359 94.216 53.0255 79.6212C43.2151 65.0264 35.6663 50.8795 31.385 39.8208C29.2413 34.2837 27.9376 29.5734 27.5581 25.9943C27.3683 24.2041 27.4159 22.751 27.6722 21.6415C27.9267 20.5399 28.3687 19.8443 28.9261 19.4377Z" stroke="#FFFFFD" stroke-width="2"/>
<path opacity="0.172414" d="M33.4237 15.9329C34.0103 15.5801 34.8003 15.4564 35.8664 15.6817C36.9401 15.9086 38.2246 16.4778 39.7024 17.4138C42.6566 19.2851 46.2042 22.5071 50.1161 26.8714C57.9287 35.5876 67.0471 48.6936 75.5993 64.1241C84.1515 79.5545 90.4882 94.3335 93.8283 105.74C95.5006 111.451 96.4055 116.262 96.4841 119.863C96.5234 121.664 96.3543 123.108 96.0061 124.19C95.6604 125.264 95.1625 125.915 94.5759 126.268C93.9894 126.62 93.1993 126.744 92.1333 126.519C91.0596 126.292 89.775 125.723 88.2972 124.787C85.3431 122.915 81.7954 119.693 77.8836 115.329C70.0709 106.613 60.9525 93.5068 52.4003 78.0764C43.8481 62.646 37.5114 47.867 34.1714 36.4608C32.499 30.7497 31.5942 25.9383 31.5156 22.3376C31.4762 20.5364 31.6454 19.093 31.9935 18.0109C32.3392 16.9365 32.8372 16.2857 33.4237 15.9329Z" stroke="#FFFFFD" stroke-width="2"/>
<path opacity="0.206897" d="M38.1548 12.8476C38.766 12.5507 39.5616 12.4985 40.6049 12.8198C41.6555 13.1433 42.8878 13.8271 44.282 14.894C47.0689 17.0268 50.3339 20.5591 53.8659 25.2622C60.92 34.6552 68.9075 48.5398 76.1363 64.6884C83.3652 80.8369 88.4414 96.1356 90.8146 107.802C92.0028 113.644 92.5018 118.52 92.2788 122.115C92.1673 123.913 91.8779 125.336 91.4406 126.382C91.0062 127.421 90.4564 128.023 89.8452 128.32C89.234 128.616 88.4383 128.669 87.395 128.347C86.3444 128.024 85.1121 127.34 83.7179 126.273C80.931 124.14 77.666 120.608 74.134 115.905C67.0799 106.512 59.0924 92.6274 51.8636 76.4788C44.6348 60.3302 39.5585 45.0315 37.1853 33.3648C35.9971 27.5232 35.4982 22.6473 35.7211 19.0524C35.8327 17.2541 36.122 15.8312 36.5594 14.7849C36.9937 13.7459 37.5435 13.1445 38.1548 12.8476Z" stroke="#FFFFFD" stroke-width="2"/>
<path opacity="0.241379" d="M43.0831 10.2013C43.7144 9.9619 44.51 9.98147 45.5225 10.3963C46.5421 10.814 47.7127 11.6071 49.0126 12.7968C51.6109 15.1749 54.5682 18.9907 57.6935 23.9968C63.9352 33.9951 70.7308 48.5525 76.5811 65.2963C82.4315 82.0401 86.2086 97.742 87.5966 109.58C88.2917 115.508 88.3808 120.411 87.8578 123.973C87.5961 125.755 87.1888 127.146 86.6655 128.149C86.1458 129.144 85.5485 129.692 84.9172 129.931C84.2858 130.171 83.4903 130.151 82.4777 129.736C81.4582 129.319 80.2876 128.526 78.9877 127.336C76.3893 124.958 73.432 121.142 70.3068 116.136C64.065 106.138 57.2694 91.5802 51.4191 74.8364C45.5688 58.0926 41.7917 42.3907 40.4036 30.5522C39.7086 24.6247 39.6194 19.7214 40.1424 16.1599C40.4041 14.3781 40.8114 12.9868 41.3347 11.9841C41.8544 10.9883 42.4517 10.4406 43.0831 10.2013Z" stroke="#FFFFFD" stroke-width="2"/>
<path opacity="0.275862" d="M48.1708 8.0117C48.8178 7.83111 49.6076 7.92218 50.5817 8.42744C51.5624 8.93611 52.6623 9.83256 53.8579 11.136C56.2477 13.7413 58.8748 17.8115 61.5694 23.0825C66.9511 33.6099 72.503 48.7293 76.9302 65.9409C81.3575 83.1524 83.8065 99.1379 84.1989 111.058C84.3953 117.026 84.0738 121.919 83.2547 125.42C82.8449 127.172 82.3226 128.521 81.7175 129.472C81.1164 130.417 80.4762 130.908 79.8292 131.088C79.1822 131.269 78.3925 131.178 77.4184 130.672C76.4377 130.164 75.3377 129.267 74.1421 127.964C71.7523 125.359 69.1253 121.288 66.4306 116.017C61.049 105.49 55.4971 90.3705 51.0698 73.159C46.6426 55.9475 44.1935 39.962 43.8012 28.042C43.6047 22.0737 43.9262 17.1805 44.7453 13.6795C45.1551 11.928 45.6774 10.5787 46.2825 9.62742C46.8836 8.68248 47.5238 8.19229 48.1708 8.0117Z" stroke="#FFFFFD" stroke-width="2"/>
<path opacity="0.310345" d="M53.3794 6.29126C54.0375 6.17038 54.8158 6.33224 55.744 6.92406C56.6784 7.51983 57.6993 8.51283 58.7815 9.92004C60.9444 12.7327 63.2211 17.0262 65.4645 22.522C69.945 33.4982 74.2109 49.0645 77.1812 66.6127C80.1516 84.1609 81.254 100.308 80.6475 112.219C80.3438 118.183 79.6141 123.028 78.5051 126.442C77.9503 128.15 77.317 129.447 76.6345 130.339C75.9566 131.226 75.2784 131.656 74.6203 131.776C73.9621 131.897 73.1838 131.736 72.2556 131.144C71.3212 130.548 70.3003 129.555 69.2182 128.148C67.0552 125.335 64.7786 121.042 62.5352 115.546C58.0546 104.57 53.7888 89.0032 50.8184 71.455C47.848 53.9068 46.7457 37.7594 47.3522 25.8488C47.6559 19.8852 48.3855 15.0395 49.4945 11.6258C50.0494 9.91796 50.6827 8.62112 51.3651 7.72838C52.043 6.84154 52.7213 6.41215 53.3794 6.29126Z" stroke="#FFFFFD" stroke-width="2"/>
<path opacity="0.344828" d="M58.6694 5.04828C59.3342 4.98769 60.0955 5.21921 60.9707 5.8931C61.8517 6.57143 62.7857 7.65339 63.746 9.15361C65.6655 12.1521 67.5744 16.6362 69.3495 22.3148C72.8947 33.6563 75.8419 49.5509 77.3328 67.3021C78.8237 85.0534 78.5708 101.24 76.9701 113.05C76.1686 118.964 75.0362 123.725 73.6457 127.025C72.95 128.676 72.2106 129.911 71.4561 130.738C70.7065 131.56 69.9953 131.926 69.3305 131.986C68.6657 132.047 67.9044 131.815 67.0292 131.141C66.1482 130.463 65.2142 129.381 64.2538 127.881C62.3343 124.882 60.4255 120.398 58.6504 114.72C55.1052 103.378 52.1579 87.4836 50.6671 69.7324C49.1762 51.9811 49.429 35.7949 51.0298 23.9844C51.8313 18.0709 52.9636 13.3097 54.3541 10.0096C55.0498 8.35841 55.7893 7.12394 56.5438 6.29655C57.2934 5.47458 58.0045 5.10887 58.6694 5.04828Z" stroke="#FFFFFD" stroke-width="2"/>
<path opacity="0.37931" d="M64.0002 4.2885C64.6672 4.2885 65.4061 4.58812 66.2216 5.33891C67.0425 6.09465 67.8825 7.2573 68.7137 8.83905C70.375 12.0005 71.9014 16.6408 73.1947 22.4591C75.7775 34.0794 77.3837 50.1811 77.3837 68.0002C77.3837 85.8193 75.7775 101.921 73.1947 113.541C71.9014 119.36 70.375 124 68.7137 127.161C67.8825 128.743 67.0425 129.906 66.2216 130.662C65.4061 131.412 64.6672 131.712 64.0002 131.712C63.3331 131.712 62.5942 131.412 61.7787 130.662C60.9578 129.906 60.1179 128.743 59.2867 127.161C57.6253 124 56.0989 119.36 54.8057 113.541C52.2229 101.921 50.6167 85.8193 50.6167 68.0002C50.6167 50.1811 52.2229 34.0794 54.8057 22.4591C56.0989 16.6408 57.6253 12.0005 59.2867 8.83905C60.1179 7.2573 60.9578 6.09465 61.7787 5.33891C62.5942 4.58812 63.3331 4.2885 64.0002 4.2885Z" stroke="#FFFFFD" stroke-width="2"/>
<path opacity="0.413793" d="M69.3303 4.01451C69.9951 4.0751 70.7063 4.44081 71.4559 5.26277C72.2104 6.09017 72.9498 7.32464 73.6455 8.97578C75.036 12.2759 76.1684 17.0372 76.9699 22.9506C78.5706 34.7611 78.8235 50.9473 77.3326 68.6986C75.8417 86.4498 72.8945 102.344 69.3493 113.686C67.5742 119.365 65.6653 123.849 63.7458 126.847C62.7855 128.347 61.8515 129.429 60.9705 130.108C60.0953 130.782 59.334 131.013 58.6692 130.952C58.0043 130.892 57.2932 130.526 56.5436 129.704C55.7891 128.877 55.0496 127.642 54.3539 125.991C52.9634 122.691 51.8311 117.93 51.0296 112.016C49.4288 100.206 49.176 84.0196 50.6669 66.2684C52.1577 48.5171 55.105 32.6226 58.6502 21.2811C60.4253 15.6024 62.3341 11.1183 64.2536 8.11984C65.214 6.61962 66.148 5.53766 67.029 4.85932C67.9042 4.18544 68.6655 3.95392 69.3303 4.01451Z" stroke="#FFFFFD" stroke-width="2"/>
<path opacity="0.448276" d="M74.6205 4.22386C75.2786 4.34474 75.9568 4.77414 76.6347 5.66097C77.3172 6.55372 77.9504 7.85055 78.5053 9.55844C79.6143 12.9721 80.344 17.8178 80.6477 23.7814C81.2542 35.692 80.1518 51.8394 77.1814 69.3876C74.2111 86.9358 69.9452 102.502 65.4647 113.478C63.2213 118.974 60.9446 123.268 58.7817 126.08C57.6995 127.488 56.6786 128.481 55.7442 129.076C54.816 129.668 54.0377 129.83 53.3796 129.709C52.7215 129.588 52.0432 129.159 51.3653 128.272C50.6829 127.379 50.0496 126.082 49.4947 124.375C48.3857 120.961 47.6561 116.115 47.3524 110.152C46.7459 98.2409 47.8482 82.0935 50.8186 64.5453C53.789 46.9971 58.0548 31.4308 62.5354 20.4546C64.7788 14.9588 67.0554 10.6653 69.2184 7.85264C70.3005 6.44543 71.3214 5.45243 72.2558 4.85666C73.184 4.26484 73.9623 4.10297 74.6205 4.22386Z" stroke="#FFFFFD" stroke-width="2"/>
<path opacity="0.482759" d="M79.8294 4.91208C80.4764 5.09267 81.1166 5.58286 81.7177 6.5278C82.3229 7.4791 82.8452 8.82836 83.255 10.5799C84.0741 14.0809 84.3955 18.974 84.1991 24.9424C83.8068 36.8624 81.3577 52.8479 76.9304 70.0594C72.5032 87.2709 66.9513 102.39 61.5696 112.918C58.875 118.189 56.2479 122.259 53.8582 124.864C52.6625 126.168 51.5626 127.064 50.5819 127.573C49.6078 128.078 48.818 128.169 48.1711 127.989C47.5241 127.808 46.8839 127.318 46.2828 126.373C45.6776 125.422 45.1553 124.072 44.7455 122.321C43.9264 118.82 43.605 113.927 43.8014 107.958C44.1937 96.0383 46.6428 80.0528 51.07 62.8412C55.4973 45.6297 61.0492 30.5102 66.4309 19.9829C69.1255 14.7119 71.7525 10.6417 74.1423 8.03638C75.3379 6.73294 76.4379 5.83649 77.4186 5.32782C78.3927 4.82256 79.1824 4.73149 79.8294 4.91208Z" stroke="#FFFFFD" stroke-width="2"/>
<path opacity="0.517241" d="M84.9169 6.06852C85.5483 6.30789 86.1456 6.85556 86.6653 7.85137C87.1886 8.85399 87.5959 10.2454 87.8576 12.0271C88.3805 15.5887 88.2914 20.4919 87.5964 26.4194C86.2083 38.2579 82.4312 53.9598 76.5809 70.7036C70.7306 87.4474 63.935 102.005 57.6932 112.003C54.568 117.009 51.6106 120.825 49.0123 123.203C47.7124 124.393 46.5418 125.186 45.5223 125.604C44.5097 126.018 43.7142 126.038 43.0828 125.799C42.4515 125.559 41.8541 125.012 41.3345 124.016C40.8112 123.013 40.4038 121.622 40.1422 119.84C39.6192 116.279 39.7083 111.375 40.4034 105.448C41.7914 93.6093 45.5685 77.9074 51.4189 61.1636C57.2692 44.4198 64.0648 29.8623 70.3065 19.8641C73.4318 14.858 76.3891 11.0422 78.9874 8.66408C80.2873 7.47435 81.4579 6.68126 82.4775 6.26357C83.49 5.84872 84.2856 5.82914 84.9169 6.06852Z" stroke="#FFFFFD" stroke-width="2"/>
<path opacity="0.551724" d="M89.8454 7.68083C90.4566 7.97773 91.0065 8.5791 91.4408 9.61817C91.8782 10.6645 92.1675 12.0873 92.2791 13.8857C92.502 17.4805 92.0031 22.3565 90.8149 28.198C88.4417 39.8648 83.3654 55.1635 76.1366 71.3121C68.9078 87.4606 60.9203 101.345 53.8662 110.738C50.3342 115.441 47.0692 118.974 44.2823 121.106C42.8881 122.173 41.6558 122.857 40.6052 123.181C39.5619 123.502 38.7662 123.45 38.155 123.153C37.5438 122.856 36.994 122.255 36.5596 121.215C36.1223 120.169 35.8329 118.746 35.7214 116.948C35.4984 113.353 35.9973 108.477 37.1856 102.636C39.5588 90.9689 44.635 75.6702 51.8639 59.5216C59.0927 43.373 67.0801 29.4885 74.1343 20.0955C77.6663 15.3924 80.9313 11.86 83.7182 9.72725C85.1124 8.6603 86.3447 7.97659 87.3953 7.65305C88.4386 7.33175 89.2342 7.38394 89.8454 7.68083Z" stroke="#FFFFFD" stroke-width="2"/>
<path opacity="0.586207" d="M94.5762 9.73295C95.1628 10.0857 95.6607 10.7365 96.0064 11.811C96.3546 12.893 96.5237 14.3364 96.4844 16.1376C96.4058 19.7383 95.5009 24.5498 93.8286 30.2608C90.4885 41.667 84.1518 56.4461 75.5996 71.8765C67.0474 87.3069 57.929 100.413 50.1163 109.129C46.2045 113.493 42.6569 116.715 39.7027 118.587C38.2249 119.523 36.9403 120.092 35.8667 120.319C34.8006 120.544 34.0106 120.42 33.424 120.068C32.8375 119.715 32.3395 119.064 31.9938 117.99C31.6457 116.908 31.4765 115.464 31.5159 113.663C31.5945 110.062 32.4993 105.251 34.1717 99.5397C37.5117 88.1335 43.8484 73.3545 52.4006 57.9241C60.9528 42.4937 70.0712 29.3877 77.8839 20.6714C81.7957 16.3072 85.3434 13.0852 88.2975 11.2139C89.7753 10.2778 91.0599 9.70867 92.1336 9.48173C93.1996 9.2564 93.9897 9.38019 94.5762 9.73295Z" stroke="#FFFFFD" stroke-width="2"/>
<path opacity="0.62069" d="M99.0739 12.2053C99.6312 12.6118 100.073 13.3075 100.328 14.409C100.584 15.5186 100.632 16.9716 100.442 18.7619C100.062 22.341 98.7586 27.0512 96.615 32.5883C92.3336 43.6471 84.7849 57.7939 74.9745 72.3888C65.1641 86.9836 54.9843 99.2113 46.4727 107.185C42.2109 111.177 38.4077 114.064 35.3089 115.659C33.7589 116.458 32.4318 116.908 31.3432 117.037C30.2625 117.164 29.4838 116.969 28.9264 116.563C28.369 116.156 27.927 115.461 27.6726 114.359C27.4163 113.25 27.3686 111.797 27.5584 110.006C27.9379 106.427 29.2416 101.717 31.3853 96.1798C35.6667 85.1211 43.2154 70.9742 53.0258 56.3794C62.8362 41.7846 73.016 29.5569 81.5276 21.5836C85.7894 17.5914 89.5926 14.7043 92.6914 13.1087C94.2414 12.3106 95.5685 11.8603 96.657 11.7317C97.7378 11.604 98.5165 11.7987 99.0739 12.2053Z" stroke="#FFFFFD" stroke-width="2"/>
<path opacity="0.655172" d="M103.304 15.0738C103.827 15.5316 104.21 16.267 104.371 17.3873C104.534 18.5159 104.46 19.9674 104.121 21.7331C103.443 25.2633 101.751 29.8365 99.1523 35.1576C93.9624 45.7847 85.2592 59.1917 74.2654 72.8399C63.2715 86.4881 52.1079 97.7445 42.9623 104.914C38.3831 108.504 34.3535 111.034 31.1337 112.342C29.5232 112.996 28.1639 113.324 27.0686 113.354C25.9815 113.383 25.2199 113.118 24.6961 112.66C24.1723 112.202 23.7899 111.467 23.6286 110.347C23.4661 109.218 23.5402 107.767 23.879 106.001C24.5564 102.471 26.2489 97.8976 28.8475 92.5765C34.0374 81.9494 42.7406 68.5424 53.7344 54.8942C64.7283 41.246 75.8919 29.9896 85.0375 22.8201C89.6167 19.2302 93.6463 16.6998 96.8661 15.3919C98.4766 14.7378 99.8359 14.4097 100.931 14.3804C102.018 14.3514 102.78 14.6159 103.304 15.0738Z" stroke="#FFFFFD" stroke-width="2"/>
<path opacity="0.689655" d="M107.234 18.3136C107.72 18.8197 108.039 19.5893 108.106 20.7198C108.174 21.859 107.978 23.2979 107.493 25.0256C106.523 28.48 104.455 32.8814 101.421 37.9459C95.3626 48.0606 85.5714 60.6259 73.4779 73.2236C61.3844 85.8213 49.322 96.0207 39.6121 102.332C34.7504 105.492 30.5251 107.647 27.2089 108.657C25.5504 109.163 24.169 109.366 23.0755 109.296C21.9902 109.226 21.2514 108.893 20.7655 108.387C20.2796 107.881 19.9602 107.111 19.8932 105.981C19.8258 104.842 20.021 103.403 20.5061 101.675C21.476 98.2205 23.5443 93.8191 26.578 88.7546C32.6368 78.6399 42.4281 66.0747 54.5216 53.477C66.6151 40.8793 78.6774 30.6798 88.3873 24.3684C93.2491 21.2082 97.4744 19.0537 100.791 18.0433C102.449 17.538 103.83 17.3346 104.924 17.4049C106.009 17.4746 106.748 17.8074 107.234 18.3136Z" stroke="#FFFFFD" stroke-width="2"/>
<path opacity="0.724138" d="M110.835 21.8958C111.279 22.4468 111.533 23.2446 111.505 24.3769C111.477 25.5179 111.162 26.9333 110.534 28.6099C109.279 31.9622 106.851 36.1585 103.405 40.9278C96.5238 50.4532 85.7191 62.0811 72.618 73.5325C59.517 84.984 46.6478 94.049 36.4476 99.4544C31.3404 102.161 26.9516 103.923 23.5644 104.629C21.8704 104.981 20.4776 105.058 19.394 104.889C18.3188 104.721 17.6085 104.322 17.1647 103.771C16.7209 103.22 16.4671 102.422 16.495 101.29C16.5231 100.149 16.838 98.7338 17.4656 97.0572C18.7205 93.7048 21.1487 89.5086 24.5943 84.7392C31.4758 75.2139 42.2805 63.586 55.3816 52.1345C68.4827 40.6831 81.3518 31.6181 91.552 26.2127C96.6593 23.5062 101.048 21.7438 104.435 21.0385C106.129 20.6858 107.522 20.6086 108.606 20.7779C109.681 20.9459 110.391 21.3448 110.835 21.8958Z" stroke="#FFFFFD" stroke-width="2"/>
<path opacity="0.758621" d="M114.079 25.7887C114.477 26.3806 114.663 27.2007 114.54 28.326C114.417 29.4601 113.985 30.8413 113.219 32.454C111.689 35.6789 108.92 39.6381 105.088 44.0762C97.4366 52.9398 85.7008 63.542 71.6919 73.7601C57.683 83.9781 44.1051 91.8398 33.4923 96.2983C28.1785 98.5306 23.6597 99.8876 20.2272 100.283C18.5106 100.48 17.1169 100.431 16.0516 100.164C14.9946 99.8986 14.3184 99.4363 13.9205 98.8443C13.5226 98.2524 13.3368 97.4324 13.4593 96.307C13.5828 95.1729 14.0149 93.7917 14.7801 92.179C16.3104 88.9541 19.08 84.9949 22.9112 80.5569C30.5629 71.6932 42.2987 61.0911 56.3076 50.873C70.3165 40.6549 83.8944 32.7932 94.5072 28.3348C99.821 26.1024 104.34 24.7454 107.772 24.3505C109.489 24.153 110.883 24.2025 111.948 24.4695C113.005 24.7345 113.681 25.1968 114.079 25.7887Z" stroke="#FFFFFD" stroke-width="2"/>
<path opacity="0.793103" d="M116.942 29.9597C117.644 31.2267 117.372 33.3682 115.529 36.5255C113.735 39.5985 110.645 43.2906 106.458 47.3637C98.0943 55.4983 85.5167 64.9942 70.7066 73.9013C55.8966 82.8083 41.7132 89.407 30.7687 92.8847C25.2887 94.626 20.6743 95.5673 17.2226 95.6491C13.6762 95.7331 11.7599 94.9077 11.0576 93.6406C10.3553 92.3735 10.6272 90.232 12.4703 87.0747C14.2641 84.0017 17.3539 80.3096 21.5415 76.2366C29.9051 68.102 42.4827 58.606 57.2927 49.699C72.1027 40.7919 86.2861 34.1932 97.2307 30.7155C102.711 28.9742 107.325 28.0329 110.777 27.9511C114.323 27.8671 116.239 28.6926 116.942 29.9597Z" stroke="#FFFFFD" stroke-width="2"/>
<path opacity="0.827586" d="M119.402 34.3723C119.997 35.7025 119.545 37.8128 117.446 40.7886C115.402 43.6865 112.016 47.0835 107.504 50.7606C98.492 58.1045 85.1684 66.422 69.6699 73.9503C54.1715 81.4787 39.4906 86.7643 28.2975 89.235C22.693 90.472 18.0181 90.9907 14.5734 90.7589C11.036 90.5208 9.19332 89.5254 8.59785 88.1951C8.00238 86.8649 8.45482 84.7547 10.5535 81.7788C12.5973 78.881 15.9837 75.4839 20.4959 71.8068C29.5075 64.463 42.8312 56.1455 58.3296 48.6171C73.8281 41.0888 88.509 35.8031 99.7021 33.3325C105.307 32.0954 109.981 31.5767 113.426 31.8086C116.964 32.0467 118.806 33.0421 119.402 34.3723Z" stroke="#FFFFFD" stroke-width="2"/>
<path opacity="0.862069" d="M121.44 38.9885C121.924 40.3714 121.294 42.4337 118.956 45.206C116.678 47.9068 113.021 50.9832 108.218 54.2364C98.627 60.7337 84.6587 67.8097 68.5897 73.9022C52.5207 79.9947 37.4541 83.9271 26.0975 85.372C20.4112 86.0955 15.7113 86.1878 12.2997 85.6441C8.79779 85.0861 7.04302 83.9278 6.55981 82.5449C6.0766 81.1619 6.70608 79.0996 9.04437 76.3273C11.3224 73.6265 14.9796 70.5502 19.782 67.2969C29.3733 60.7996 43.3416 53.7236 59.4105 47.6312C75.4795 41.5387 90.5462 37.6062 101.903 36.1613C107.589 35.4378 112.289 35.3456 115.701 35.8892C119.202 36.4472 120.957 37.6055 121.44 38.9885Z" stroke="#FFFFFD" stroke-width="2"/>
<path opacity="0.896552" d="M123.042 43.7706C123.408 45.1953 122.607 47.1933 120.047 49.7415C117.552 52.2249 113.651 54.9572 108.595 57.7619C98.4975 63.3635 83.9908 69.1442 67.4736 73.7545C50.9563 78.3648 35.6185 80.9143 24.1848 81.3226C18.4599 81.5271 13.7706 81.1923 10.4179 80.3411C6.97774 79.4677 5.32458 78.1548 4.95812 76.7301C4.59166 75.3055 5.39315 73.3074 7.95322 70.7592C10.4482 68.2758 14.3485 65.5435 19.4046 62.7388C29.5024 57.1372 44.0091 51.3565 60.5264 46.7462C77.0436 42.1359 92.3814 39.5864 103.815 39.1781C109.54 38.9736 114.229 39.3084 117.582 40.1596C121.022 41.033 122.675 42.3459 123.042 43.7706Z" stroke="#FFFFFD" stroke-width="2"/>
<path opacity="0.931035" d="M124.194 48.6769C124.44 50.1317 123.473 52.0499 120.711 54.3551C118.018 56.6023 113.904 58.9699 108.633 61.3049C98.1052 65.9681 83.1704 70.4097 66.3305 73.5028C49.4907 76.596 33.9982 77.7432 22.5743 77.112C16.8543 76.7959 12.2112 76.0367 8.94287 74.8845C5.59006 73.7025 4.05157 72.2446 3.80531 70.7897C3.55905 69.3349 4.52607 67.4167 7.2886 65.1115C9.98155 62.8643 14.0953 60.4967 19.3666 58.1617C29.8943 53.4985 44.8291 49.0569 61.669 45.9637C78.5088 42.8706 94.0013 41.7234 105.425 42.3546C111.145 42.6707 115.788 43.4299 119.057 44.5821C122.409 45.7641 123.948 47.222 124.194 48.6769Z" stroke="#FFFFFD" stroke-width="2"/>
<path opacity="0.965517" d="M124.889 53.6676C125.013 55.1407 123.888 56.9639 120.944 59.0091C118.074 61.0031 113.778 62.9882 108.331 64.8356C97.4535 68.5253 82.2041 71.594 65.1697 73.1464C48.1353 74.6989 32.6061 74.4352 21.2787 72.7692C15.607 71.9351 11.0453 70.7572 7.88603 69.3128C4.64559 67.8313 3.23404 66.2391 3.11032 64.766C2.98659 63.2929 4.1113 61.4697 7.05554 59.4245C9.92607 57.4305 14.2221 55.4454 19.6685 53.598C30.5461 49.9083 45.7955 46.8396 62.8299 45.2872C79.8643 43.7347 95.3936 43.9984 106.721 45.6644C112.393 46.4985 116.954 47.6764 120.114 49.1208C123.354 50.6024 124.766 52.1945 124.889 53.6676Z" stroke="#FFFFFD" stroke-width="2"/>
<path d="M125.122 58.7004C125.122 60.1796 123.849 61.8939 120.745 63.6639C117.718 65.3896 113.273 66.9771 107.692 68.323C96.5476 71.011 81.0996 72.6836 64.0002 72.6836C46.9008 72.6836 31.4527 71.011 20.3079 68.323C14.7277 66.9771 10.282 65.3896 7.25561 63.6639C4.1517 61.8939 2.87842 60.1796 2.87842 58.7004C2.87842 57.2212 4.1517 55.507 7.25561 53.737C10.282 52.0113 14.7277 50.4238 20.3079 49.0779C31.4527 46.3899 46.9008 44.7173 64.0002 44.7173C81.0996 44.7173 96.5476 46.3899 107.692 49.0779C113.273 50.4238 117.718 52.0113 120.745 53.737C123.849 55.507 125.122 57.2212 125.122 58.7004Z" stroke="#FFFFFD" stroke-width="2"/>
</g>
</svg>
