<svg width="140" height="129" viewBox="0 0 140 129" fill="none" xmlns="http://www.w3.org/2000/svg" xmlns:xlink="http://www.w3.org/1999/xlink">
<g opacity="0.3">
<path opacity="0.0526316" d="M129.123 104.153C126.169 107.853 116.727 114.046 102.594 109.211C84.9278 103.168 78.0951 87.1485 62.3275 78.8424C50.6898 72.7118 19.4189 63.5095 1.43764 73.6782" stroke="#FFFFFD" stroke-width="2"/>
<path opacity="0.105263" d="M132.036 96.395C129.509 100.366 120.807 107.454 106.215 104.036C87.974 99.765 79.4004 84.5061 62.7971 77.7973C50.5426 72.8457 18.4214 66.7716 1.66751 78.6543" stroke="#FFFFFD" stroke-width="2"/>
<path opacity="0.157895" d="M134.238 88.5327C132.165 92.7307 124.298 100.636 109.406 98.6738C90.7908 96.2211 80.5703 81.8895 63.3132 76.8517C50.5762 73.1333 17.9566 70.2539 2.61363 83.7206" stroke="#FFFFFD" stroke-width="2"/>
<path opacity="0.210526" d="M135.718 80.6364C134.123 85.0153 127.176 93.6516 112.148 93.1659C93.3631 92.5587 81.6076 79.3116 63.8858 75.9999C50.8057 73.5555 18.0452 73.9024 4.28124 88.8054" stroke="#FFFFFD" stroke-width="2"/>
<path opacity="0.263158" d="M136.48 72.7769C135.38 77.2888 129.43 86.5616 114.43 87.5576C95.6801 88.8027 82.5184 76.7852 64.526 75.2358C51.2462 74.0922 18.7037 77.6616 6.66956 93.8376" stroke="#FFFFFD" stroke-width="2"/>
<path opacity="0.315789" d="M136.528 65.0258C135.935 69.6213 131.047 79.4289 116.24 81.8958C97.7312 84.9795 83.3075 74.3232 65.2417 74.5532C51.9077 74.7229 19.9397 81.4756 9.76721 98.7475" stroke="#FFFFFD" stroke-width="2"/>
<path opacity="0.368421" d="M135.882 57.4517C135.802 62.0804 132.029 72.3154 117.577 76.2262C99.5121 81.1146 83.9844 71.9363 66.043 73.9431C52.801 75.4243 21.7577 85.2864 13.5584 103.465" stroke="#FFFFFD" stroke-width="2"/>
<path opacity="0.421053" d="M134.562 50.1222C134.997 54.7333 132.381 65.2836 118.442 70.5953C101.019 77.235 84.5572 69.6353 66.9369 73.3969C53.9318 76.1733 24.1535 89.0368 18.017 107.923" stroke="#FFFFFD" stroke-width="2"/>
<path opacity="0.473684" d="M132.6 43.1028C133.544 47.6459 132.114 58.3958 118.841 65.0504C102.25 73.3685 85.0355 67.4306 67.9293 72.9059C55.3037 76.9471 27.1164 92.671 23.1102 112.057" stroke="#FFFFFD" stroke-width="2"/>
<path opacity="0.526316" d="M130.035 36.4539C131.478 40.8793 131.249 51.7111 118.788 59.6355C103.211 69.541 85.4316 65.33 69.027 72.4589C56.9191 77.7206 30.6319 96.1326 28.7997 115.807" stroke="#FFFFFD" stroke-width="2"/>
<path opacity="0.578947" d="M126.91 30.2332C128.837 34.4923 129.812 45.2873 118.298 54.3947C103.907 65.7791 85.7569 63.3411 70.2335 72.0456C58.7761 78.4701 34.6768 99.3686 35.0388 119.116" stroke="#FFFFFD" stroke-width="2"/>
<path opacity="0.631579" d="M123.277 24.495C125.666 28.5412 127.834 39.1811 117.395 49.3718C104.346 62.1103 86.0247 61.472 71.5527 71.6567C60.8712 79.1737 39.224 102.33 41.7761 121.933" stroke="#FFFFFD" stroke-width="2"/>
<path opacity="0.684211" d="M119.192 19.2849C122.017 23.0737 125.354 33.442 116.103 44.6044C104.54 58.5574 86.248 59.7258 72.9859 71.2791C63.1974 79.8062 44.2393 104.966 48.9538 124.21" stroke="#FFFFFD" stroke-width="2"/>
<path opacity="0.736842" d="M114.714 14.6448C117.944 18.1349 122.414 28.1179 114.453 40.1296C104.502 55.1443 86.4405 58.1066 74.5336 70.9019C65.7454 80.3457 49.6842 107.233 56.5091 125.909" stroke="#FFFFFD" stroke-width="2"/>
<path opacity="0.789474" d="M109.911 10.6106C113.511 13.7637 119.064 23.2521 112.481 35.9815C104.251 51.8933 86.6169 56.6171 76.1957 70.5142C68.504 80.7713 55.5157 109.092 64.3764 126.994" stroke="#FFFFFD" stroke-width="2"/>
<path opacity="0.842105" d="M104.851 7.21095C108.781 9.99241 115.357 18.8822 110.223 32.1899C103.805 48.8246 86.7917 55.2581 77.9703 70.1048C71.4594 81.0627 61.6862 110.507 72.4857 127.438" stroke="#FFFFFD" stroke-width="2"/>
<path opacity="0.894737" d="M99.6062 4.46705C103.823 6.84646 111.351 15.0403 107.722 28.7805C103.185 45.9557 86.9798 54.0284 79.8548 69.662C74.5961 81.2007 68.1452 111.446 80.765 127.221" stroke="#FFFFFD" stroke-width="2"/>
<path opacity="0.947368" d="M94.2501 2.39479C98.7085 4.34609 107.104 11.7542 105.02 25.7763C102.415 43.3039 87.1948 52.9274 81.8444 69.1766C77.8955 81.1696 74.8374 111.884 89.1394 126.331" stroke="#FFFFFD" stroke-width="2"/>
<path d="M88.8583 1C93.5088 2.50181 102.681 9.04301 102.165 23.1934C101.52 40.8813 87.4514 51.9502 83.9342 68.6369C81.3382 80.953 81.7066 111.8 97.534 124.76" stroke="#FFFFFD" stroke-width="2"/>
</g>
</svg>
