<svg width="334" height="304" viewBox="0 0 334 304" fill="none" xmlns="http://www.w3.org/2000/svg">
<g opacity="0.22">
<path d="M5.85169 78.4698C-17.2007 0.512829 68.194 -7.42225 129.821 16.1167C165.777 28.2225 189.39 -9.42557 233.933 5.59928C278.476 20.6241 225.078 67.9525 293.234 92.2426C361.39 116.533 328.117 225.213 268.548 226.465C208.978 227.717 225.346 245.997 165.777 287.816C106.207 329.635 5.85182 271.539 30.8066 210.188C55.7613 148.836 30.8063 162.859 5.85169 78.4698Z" stroke="#FFB47D" stroke-width="4"/>
<path d="M134.059 139.14C131.399 131.715 143.857 119.737 153.875 124.849C163.048 129.53 172.389 126.373 178.561 128.46C194.808 133.954 188.832 136.862 196.095 143.387C204.933 151.327 209.151 172.119 188.832 172.119C172.121 172.119 177.121 179.694 164.608 183.05C152.094 186.406 137.903 180.693 137.903 165.652C137.903 160.004 138.489 151.507 134.059 139.14Z" stroke="#FFB47D" stroke-width="4"/>
<path d="M17.5056 83.6071C-3.69287 12.0622 75.0712 3.75953 132.006 25.6233C165.528 37.0541 187.843 2.54159 228.898 16.3903C270.868 30.5487 221.782 73.8388 284.402 96.514C347.166 119.318 317.301 220.008 261.299 221.146C205.626 222.284 220.961 239.591 165.669 277.914C110.378 316.236 17.8553 262.902 40.5414 205.761C63.2275 149.473 40.5944 161.449 17.5056 83.6071Z" stroke="#FFB47D" stroke-width="4"/>
<path d="M29.1586 88.7432C9.81392 23.6103 81.9474 14.94 134.191 35.1286C165.277 45.8845 186.296 14.5075 223.862 27.18C263.26 40.472 218.484 79.7239 275.569 100.784C332.94 122.102 306.483 214.802 254.05 215.826C202.273 216.851 216.575 233.184 165.561 268.01C114.547 302.836 29.8577 254.264 50.2752 201.333C70.6927 150.109 50.3814 160.038 29.1586 88.7432Z" stroke="#FFB47D" stroke-width="4"/>
<path d="M40.8127 93.881C23.3219 35.1601 88.8248 26.1223 136.376 44.6357C165.028 54.7166 184.749 26.4752 218.827 37.9715C255.653 50.397 215.188 85.6108 266.737 105.056C318.716 124.887 295.667 209.597 246.802 210.508C198.922 211.419 212.189 226.779 165.454 258.108C118.718 289.438 41.8613 245.628 60.0102 196.907C78.1591 150.747 60.1696 158.628 40.8127 93.881Z" stroke="#FFB47D" stroke-width="4"/>
<path d="M52.4667 99.0192C36.8298 46.7103 95.7021 37.305 138.562 54.1432C164.779 63.5491 183.202 38.4432 213.792 48.7634C248.046 60.3225 211.892 91.498 257.905 109.328C304.491 127.673 284.851 204.393 239.554 205.19C195.57 205.987 207.804 220.374 165.346 248.207C122.888 276.039 53.8649 236.992 69.7452 192.481C85.6255 151.385 69.9578 157.219 52.4667 99.0192Z" stroke="#FFB47D" stroke-width="4"/>
<path d="M64.12 104.415C50.3369 58.5183 102.579 48.7454 140.747 63.9085C164.529 72.6394 181.655 50.6691 208.756 59.8131C240.438 70.5058 208.595 97.6431 249.072 113.858C290.266 130.717 274.034 199.447 232.306 200.13C192.217 200.813 203.418 214.227 165.238 238.563C127.058 262.899 65.8676 228.614 79.4793 188.313C93.091 152.281 79.7452 156.067 64.12 104.415Z" stroke="#FFB47D" stroke-width="4"/>
<path d="M75.7745 110.122C63.8453 70.6366 109.456 60.4961 142.933 73.984C164.28 82.04 180.109 63.2051 203.722 71.173C232.831 80.9992 205.299 104.098 240.241 118.699C276.042 134.071 263.218 194.811 225.058 195.381C188.866 195.95 199.033 208.39 165.131 229.23C131.228 250.069 77.8717 220.546 89.2147 184.455C100.558 153.487 89.5338 155.226 75.7745 110.122Z" stroke="#FFB47D" stroke-width="4"/>
<path d="M87.4291 115.844C77.3538 82.7711 116.334 72.2631 145.119 84.0758C164.032 91.4568 178.563 75.7575 198.687 82.5491C225.224 91.509 202.004 110.57 231.41 123.555C261.818 137.441 252.402 190.192 217.811 190.647C185.515 191.102 194.649 202.57 165.024 219.913C135.399 237.255 89.8759 212.494 98.9503 180.613C108.025 154.709 99.3226 154.401 87.4291 115.844Z" stroke="#FFB47D" stroke-width="4"/>
<path d="M99.0834 121.592C90.862 94.9308 123.212 84.0552 147.305 94.1927C163.783 100.899 177.016 88.335 193.653 93.9504C217.617 102.044 198.708 117.067 222.578 128.437C247.594 140.836 241.586 185.597 210.563 185.939C182.163 186.28 190.264 196.775 164.917 210.621C139.57 224.467 101.88 204.467 108.685 176.797C115.491 155.957 109.111 153.601 99.0834 121.592Z" stroke="#FFB47D" stroke-width="4"/>
<path d="M110.739 127.376C104.372 107.127 130.091 95.884 149.492 104.346C163.535 110.377 175.472 100.949 188.62 105.389C210.012 112.616 195.413 123.6 213.748 133.355C233.371 144.268 230.772 181.04 203.317 181.267C178.814 181.495 185.881 191.016 164.812 201.365C143.743 211.715 113.885 196.478 118.422 173.017C122.96 157.241 118.901 152.838 110.739 127.376Z" stroke="#FFB47D" stroke-width="4"/>
<path d="M122.397 133.215C117.883 119.378 136.972 107.767 151.682 114.554C163.29 119.91 173.929 113.618 183.589 116.881C202.408 123.241 192.121 130.188 204.92 138.328C219.15 147.754 219.96 176.536 196.073 176.65C175.465 176.764 181.499 185.312 164.708 192.164C147.917 199.017 125.892 188.542 128.161 169.291C130.43 158.579 128.693 152.129 122.397 133.215Z" stroke="#FFB47D" stroke-width="4"/>
</g>
</svg>
