<svg width="140" height="129" viewBox="0 0 140 129" fill="none" xmlns="http://www.w3.org/2000/svg">
<g opacity="0.3">
<path opacity="0.0526316" d="M10.8773 104.153C13.8313 107.853 23.2725 114.046 37.4057 109.211C55.0722 103.168 61.9049 87.1485 77.6725 78.8424C89.3102 72.7118 120.581 63.5095 138.562 73.6782" stroke="#FFFFFD" stroke-width="2"/>
<path opacity="0.105263" d="M7.96377 96.395C10.4908 100.366 19.1929 107.454 33.7854 104.036C52.026 99.765 60.5996 84.5061 77.2029 77.7973C89.4574 72.8457 121.579 66.7716 138.332 78.6543" stroke="#FFFFFD" stroke-width="2"/>
<path opacity="0.157895" d="M5.7624 88.5327C7.83474 92.7307 15.7024 100.636 30.5943 98.6738C49.2092 96.2211 59.4297 81.8895 76.6868 76.8517C89.4238 73.1333 122.043 70.2539 137.386 83.7206" stroke="#FFFFFD" stroke-width="2"/>
<path opacity="0.210526" d="M4.28162 80.6364C5.87658 85.0153 12.8236 93.6516 27.8517 93.1659C46.6369 92.5587 58.3924 79.3116 76.1142 75.9999C89.1943 73.5555 121.955 73.9024 135.719 88.8054" stroke="#FFFFFD" stroke-width="2"/>
<path opacity="0.263158" d="M3.52019 72.7769C4.62031 77.2888 10.5705 86.5616 25.5702 87.5576C44.3199 88.8027 57.4816 76.7852 75.474 75.2358C88.7538 74.0922 121.296 77.6616 133.33 93.8376" stroke="#FFFFFD" stroke-width="2"/>
<path opacity="0.315789" d="M3.47166 65.0258C4.06487 69.6213 8.95305 79.4289 23.76 81.8958C42.2688 84.9795 56.6925 74.3232 74.7583 74.5532C88.0923 74.7229 120.06 81.4756 130.233 98.7475" stroke="#FFFFFD" stroke-width="2"/>
<path opacity="0.368421" d="M4.11847 57.4517C4.19828 62.0804 7.97091 72.3154 22.4229 76.2262C40.4879 81.1146 56.0156 71.9363 73.957 73.9431C87.199 75.4243 118.242 85.2864 126.442 103.465" stroke="#FFFFFD" stroke-width="2"/>
<path opacity="0.421053" d="M5.43793 50.1222C5.00347 54.7333 7.61921 65.2836 21.5579 70.5953C38.9813 77.235 55.4428 69.6353 73.0631 73.3969C86.0682 76.1733 115.847 89.0368 121.983 107.923" stroke="#FFFFFD" stroke-width="2"/>
<path opacity="0.473684" d="M7.39979 43.1028C6.4558 47.6459 7.88601 58.3958 21.1587 65.0504C37.7495 73.3685 54.9645 67.4306 72.0707 72.9059C84.6963 76.9471 112.884 92.671 116.89 112.057" stroke="#FFFFFD" stroke-width="2"/>
<path opacity="0.526316" d="M9.9649 36.4539C8.52174 40.8793 8.75073 51.7111 21.212 59.6355C36.7885 69.541 54.5684 65.33 70.973 72.4589C83.0809 77.7206 109.368 96.1326 111.2 115.807" stroke="#FFFFFD" stroke-width="2"/>
<path opacity="0.578947" d="M13.0896 30.2332C11.163 34.4923 10.1883 45.2873 21.7016 54.3947C36.0932 65.7791 54.2431 63.3411 69.7665 72.0456C81.2239 78.4701 105.323 99.3686 104.961 119.116" stroke="#FFFFFD" stroke-width="2"/>
<path opacity="0.631579" d="M16.7226 24.495C14.3338 28.5412 12.1661 39.1811 22.6052 49.3718C35.6541 62.1103 53.9753 61.472 68.4473 71.6567C79.1288 79.1737 100.776 102.33 98.2239 121.933" stroke="#FFFFFD" stroke-width="2"/>
<path opacity="0.684211" d="M20.8083 19.2849C17.9834 23.0737 14.6464 33.442 23.897 44.6044C35.4603 58.5574 53.752 59.7258 67.0141 71.2791C76.8026 79.8062 95.7607 104.966 91.0462 124.21" stroke="#FFFFFD" stroke-width="2"/>
<path opacity="0.736842" d="M25.2857 14.6448C22.0557 18.1349 17.586 28.1179 25.5468 40.1296C35.4978 55.1443 53.5595 58.1066 65.4664 70.9019C74.2546 80.3457 90.3158 107.233 83.4909 125.909" stroke="#FFFFFD" stroke-width="2"/>
<path opacity="0.789474" d="M30.089 10.6106C26.4893 13.7637 20.9357 23.2521 27.5195 35.9815C35.7492 51.8933 53.3831 56.6171 63.8043 70.5142C71.496 80.7713 84.4843 109.092 75.6236 126.994" stroke="#FFFFFD" stroke-width="2"/>
<path opacity="0.842105" d="M35.1491 7.21095C31.2191 9.99241 24.6426 18.8822 29.7772 32.1899C36.1954 48.8246 53.2083 55.2581 62.0297 70.1048C68.5406 81.0627 78.3138 110.507 67.5143 127.438" stroke="#FFFFFD" stroke-width="2"/>
<path opacity="0.894737" d="M40.3938 4.46705C36.1765 6.84646 28.6492 15.0403 32.2783 28.7805C36.8147 45.9557 53.0202 54.0284 60.1452 69.662C65.4039 81.2007 71.8548 111.446 59.235 127.221" stroke="#FFFFFD" stroke-width="2"/>
<path opacity="0.947368" d="M45.7499 2.39479C41.2915 4.34609 32.8958 11.7542 34.9797 25.7763C37.5846 43.3039 52.8052 52.9274 58.1556 69.1766C62.1045 81.1696 65.1626 111.884 50.8606 126.331" stroke="#FFFFFD" stroke-width="2"/>
<path d="M51.1417 1C46.4912 2.50181 37.3191 9.04301 37.835 23.1934C38.4798 40.8813 52.5486 51.9502 56.0658 68.6369C58.6618 80.953 58.2934 111.8 42.466 124.76" stroke="#FFFFFD" stroke-width="2"/>
</g>
</svg>
