<?xml version="1.0" encoding="UTF-8"?>
<svg id="Layer_1" data-name="Layer 1" xmlns="http://www.w3.org/2000/svg" version="1.1" viewBox="0 0 210 115">
  <defs>
    <style>
      .cls-1 {
        fill: #fff;
        isolation: isolate;
        opacity: .2;
        stroke-width: 0px;
      }
    </style>
  </defs>
  <path class="cls-1" d="M12.6,53c-17.7-7.9-33.3-.6-45,0-1.9,21.9-4.6,68,0,77.6,5.7,11.9,57.4,17,92.7,23,28.2,4.8,151.2-13.4,205.1-23,5.7-36.6,13.8-128,0-128.7-17.2-.9-57.5,20-85.4,68.6-36.5,63.5-94.3,48.2-114.8,26-16.5-17.9-29.5-33.2-52.5-43.4Z"/>
  <path class="cls-1" d="M10.9,43.4c-21.8-17.9-38.6-14.5-48.4-10.2-1.9,21.9-4.6,68,0,77.6,5.7,11.9,57.4,17,92.7,23,28.2,4.8,151.2,9.7,205.1,0,5.7-36.6,13.8-151,0-151.7-17.2-.9-57.5,20-85.4,68.6-36.5,63.5-50.9-22.6-91.5-32.4-23.2-5.6-50.7,43.1-72.5,25.2Z"/>
</svg>