<svg width="24" height="23" viewBox="0 0 24 23" fill="none" xmlns="http://www.w3.org/2000/svg">
<path d="M19.5 0.65625H4.5C3.50544 0.65625 2.55161 1.04146 1.84835 1.72714C1.14509 2.41282 0.75 3.3428 0.75 4.3125V18.9375C0.75 19.9072 1.14509 20.8372 1.84835 21.5229C2.55161 22.2085 3.50544 22.5938 4.5 22.5938H19.5C20.4946 22.5938 21.4484 22.2085 22.1517 21.5229C22.8549 20.8372 23.25 19.9072 23.25 18.9375V4.3125C23.25 3.3428 22.8549 2.41282 22.1517 1.72714C21.4484 1.04146 20.4946 0.65625 19.5 0.65625ZM4.5 3.09375H19.5C19.8315 3.09375 20.1495 3.22215 20.3839 3.45071C20.6183 3.67927 20.75 3.98927 20.75 4.3125V14.5012L16.75 11.1741C16.1302 10.6769 15.3526 10.405 14.55 10.405C13.7474 10.405 12.9698 10.6769 12.35 11.1741L3.25 18.5719V4.3125C3.25 3.98927 3.3817 3.67927 3.61612 3.45071C3.85054 3.22215 4.16848 3.09375 4.5 3.09375Z" fill="#231F20"/>
</svg>
