<svg width="20" height="21" viewBox="0 0 20 21" fill="none" xmlns="http://www.w3.org/2000/svg">
<path d="M19.25 4.94554L15.825 1.60617C15.378 1.19679 14.7922 0.961887 14.1792 0.946157C13.5661 0.930427 12.9685 1.13496 12.5 1.52086L1.25 12.4896C0.845962 12.8869 0.594385 13.4076 0.537504 13.9643L4.66546e-06 19.0465C-0.0168341 19.225 0.00692258 19.4049 0.0695812 19.5735C0.13224 19.742 0.232257 19.895 0.362505 20.0215C0.479305 20.1344 0.617825 20.2238 0.770122 20.2845C0.922419 20.3451 1.0855 20.3758 1.25 20.3749H1.3625L6.575 19.9118C7.146 19.8563 7.68005 19.611 8.08751 19.2171L19.3375 8.24836C19.7742 7.7986 20.0101 7.19841 19.9937 6.57932C19.9773 5.96023 19.7099 5.37272 19.25 4.94554ZM15 9.01617L11.65 5.74992L14.0875 3.31242L17.5 6.6396L15 9.01617Z" fill="#231F20"/>
</svg>
