<svg width="26" height="25" viewBox="0 0 26 25" fill="none" xmlns="http://www.w3.org/2000/svg">
<path d="M24.25 5.31223H18V3.27691C17.9707 2.49669 17.6253 1.75964 17.0395 1.22733C16.4537 0.695024 15.6753 0.410893 14.875 0.437227H11.125C10.3247 0.410893 9.54633 0.695024 8.96054 1.22733C8.37474 1.75964 8.02933 2.49669 8 3.27691V5.31223H1.75C1.41848 5.31223 1.10054 5.44063 0.866116 5.66919C0.631696 5.89775 0.5 6.20774 0.5 6.53098C0.5 6.85421 0.631696 7.1642 0.866116 7.39276C1.10054 7.62132 1.41848 7.74973 1.75 7.74973H3V21.156C3 22.1257 3.39509 23.0557 4.09835 23.7413C4.80161 24.427 5.75544 24.8122 6.75 24.8122H19.25C20.2446 24.8122 21.1984 24.427 21.9017 23.7413C22.6049 23.0557 23 22.1257 23 21.156V7.74973H24.25C24.5815 7.74973 24.8995 7.62132 25.1339 7.39276C25.3683 7.1642 25.5 6.85421 25.5 6.53098C25.5 6.20774 25.3683 5.89775 25.1339 5.66919C24.8995 5.44063 24.5815 5.31223 24.25 5.31223ZM10.5 3.27691C10.5 3.08191 10.7625 2.87473 11.125 2.87473H14.875C15.2375 2.87473 15.5 3.08191 15.5 3.27691V5.31223H10.5V3.27691Z" fill="#231F20"/>
</svg>
