<?xml version="1.0" encoding="UTF-8"?>
<svg id="Layer_1" data-name="Layer 1" xmlns="http://www.w3.org/2000/svg" version="1.1" viewBox="0 0 282 300">
  <defs>
    <style>
      .cls-1 {
        opacity: 0;
      }

      .cls-1, .cls-2, .cls-3, .cls-4, .cls-5, .cls-6, .cls-7, .cls-8, .cls-9, .cls-10, .cls-11, .cls-12, .cls-13, .cls-14, .cls-15, .cls-16, .cls-17, .cls-18, .cls-19, .cls-20, .cls-21, .cls-22, .cls-23, .cls-24, .cls-25, .cls-26, .cls-27, .cls-28, .cls-29 {
        fill: none;
        stroke: #44b528;
        stroke-width: 4px;
      }

      .cls-1, .cls-2, .cls-3, .cls-4, .cls-5, .cls-6, .cls-7, .cls-8, .cls-10, .cls-11, .cls-12, .cls-13, .cls-14, .cls-15, .cls-16, .cls-17, .cls-18, .cls-19, .cls-20, .cls-21, .cls-22, .cls-23, .cls-24, .cls-25, .cls-26, .cls-27, .cls-28, .cls-29 {
        isolation: isolate;
      }

      .cls-2 {
        opacity: 0;
      }

      .cls-3 {
        opacity: .5;
      }

      .cls-4 {
        opacity: .5;
      }

      .cls-5 {
        opacity: .7;
      }

      .cls-6 {
        opacity: .1;
      }

      .cls-7 {
        opacity: .3;
      }

      .cls-8 {
        opacity: .3;
      }

      .cls-10 {
        opacity: .2;
      }

      .cls-11 {
        opacity: .3;
      }

      .cls-12 {
        opacity: .4;
      }

      .cls-13 {
        opacity: .9;
      }

      .cls-14 {
        opacity: .6;
      }

      .cls-15 {
        opacity: .7;
      }

      .cls-16 {
        opacity: .8;
      }

      .cls-17 {
        opacity: .4;
      }

      .cls-18 {
        opacity: .8;
      }

      .cls-19 {
        opacity: .4;
      }

      .cls-20 {
        opacity: .6;
      }

      .cls-21 {
        opacity: .2;
      }

      .cls-30 {
        opacity: .2;
      }

      .cls-22 {
        opacity: .9;
      }

      .cls-23 {
        opacity: 1;
      }

      .cls-24 {
        opacity: .2;
      }

      .cls-25 {
        opacity: .9;
      }

      .cls-26 {
        opacity: .7;
      }

      .cls-27 {
        opacity: .8;
      }

      .cls-28 {
        opacity: .6;
      }

      .cls-29 {
        opacity: .1;
      }
    </style>
  </defs>
  <g class="cls-30">
    <path class="cls-2" d="M36,70.1c1-1.3,2.7-2.2,5.1-2.6,2.4-.4,5.6-.2,9.4.6,7.6,1.6,17.4,5.5,28.8,11.6,22.7,12.1,51.4,32.3,80.6,57.8,29.2,25.5,53.3,51.5,68.6,72.7,7.7,10.6,13.1,20,15.9,27.5,1.4,3.7,2.1,6.9,2.2,9.5,0,2.6-.5,4.4-1.5,5.7-1,1.3-2.7,2.2-5.1,2.6-2.4.4-5.6.2-9.4-.6-7.6-1.6-17.4-5.5-28.8-11.5-22.7-12.1-51.4-32.3-80.6-57.8-29.2-25.5-53.3-51.5-68.6-72.7-7.7-10.6-13.1-20-15.9-27.5-1.4-3.7-2.1-6.9-2.2-9.5,0-2.6.5-4.4,1.5-5.7Z"/>
    <path class="cls-1" d="M44.1,59.8c1.1-1.2,2.8-1.9,5.3-2.1,2.5-.2,5.6.3,9.3,1.4,7.4,2.3,16.9,7.1,27.7,14.1,21.7,14.1,48.5,36.8,75.5,64.9,27,28.1,48.8,56.1,62.3,78.7,6.8,11.3,11.4,21.1,13.6,28.8,1.1,3.9,1.5,7.1,1.4,9.7-.2,2.6-.9,4.3-2,5.5-1.1,1.2-2.8,1.9-5.3,2.1-2.5.2-5.6-.3-9.3-1.4-7.4-2.3-16.9-7.1-27.7-14.1-21.7-14.1-48.5-36.8-75.5-64.9-27-28.1-48.8-56.1-62.3-78.7-6.8-11.3-11.4-21.1-13.6-28.8-1.1-3.9-1.5-7.1-1.4-9.7.2-2.6.9-4.3,2-5.5Z"/>
    <path class="cls-29" d="M52.9,50.3c1.2-1.1,3-1.7,5.4-1.6,2.5,0,5.5.8,9.1,2.3,7.2,2.9,16.2,8.6,26.4,16.6,20.4,16,45.3,41.1,69.8,71.5,24.5,30.4,43.9,60.3,55.5,84,5.8,11.9,9.6,22.1,11.1,30,.8,3.9.9,7.2.6,9.8-.4,2.5-1.2,4.2-2.4,5.3-1.2,1.1-3,1.7-5.4,1.6-2.5,0-5.5-.8-9.1-2.3-7.2-2.9-16.2-8.6-26.4-16.6-20.4-16-45.3-41.1-69.8-71.5-24.5-30.4-43.9-60.3-55.5-84-5.8-11.9-9.6-22.1-11.1-30-.8-3.9-.9-7.2-.6-9.8.4-2.5,1.2-4.2,2.5-5.3Z"/>
    <path class="cls-6" d="M62.3,41.6c1.3-.9,3.1-1.4,5.5-1.1,2.5.3,5.4,1.3,8.9,3.1,6.9,3.6,15.4,10,24.9,18.9,19,17.8,41.7,45,63.5,77.6,21.9,32.5,38.7,64.1,48.2,88.7,4.8,12.3,7.7,22.9,8.5,30.9.4,4,.3,7.3-.3,9.8-.6,2.5-1.6,4.1-2.9,5-1.3.9-3.1,1.4-5.5,1.1-2.5-.3-5.4-1.3-8.9-3.1-6.9-3.6-15.4-10-24.9-18.9-19-17.8-41.7-45-63.5-77.6-21.9-32.5-38.7-64.1-48.2-88.7-4.8-12.3-7.7-22.9-8.5-30.9-.4-4-.3-7.3.3-9.8.6-2.5,1.6-4.1,2.9-5Z"/>
    <path class="cls-24" d="M72.3,33.8c1.4-.8,3.2-1.1,5.6-.6,2.4.5,5.3,1.8,8.6,3.9,6.6,4.2,14.5,11.4,23.3,21.1,17.4,19.4,37.8,48.7,56.8,83.1,19.1,34.4,33.2,67.3,40.6,92.8,3.7,12.7,5.8,23.5,5.9,31.5,0,4-.3,7.3-1.1,9.7-.8,2.4-1.9,3.9-3.3,4.8s-3.2,1.1-5.6.6c-2.4-.5-5.3-1.8-8.6-3.9-6.6-4.2-14.5-11.4-23.2-21.1-17.4-19.4-37.8-48.7-56.8-83.1-19.1-34.4-33.2-67.3-40.6-92.8-3.7-12.7-5.8-23.5-5.9-31.5,0-4,.3-7.3,1.1-9.7.8-2.4,1.9-3.9,3.3-4.7Z"/>
    <path class="cls-10" d="M82.9,26.9c1.4-.7,3.3-.8,5.6,0,2.4.7,5.1,2.3,8.3,4.7,6.2,4.8,13.5,12.7,21.4,23.1,15.7,20.9,33.5,51.9,49.7,87.9,16.1,36,27.4,70.1,32.7,96.1,2.7,13,3.8,23.9,3.3,32-.2,4-.9,7.2-1.9,9.6-1,2.3-2.2,3.7-3.7,4.4-1.4.7-3.3.8-5.6,0-2.4-.7-5.1-2.3-8.3-4.7-6.2-4.8-13.5-12.7-21.4-23.1-15.7-20.9-33.5-51.9-49.7-87.9-16.1-36-27.4-70.1-32.7-96.1-2.6-13-3.8-23.9-3.3-32,.2-4,.9-7.2,1.9-9.6,1-2.3,2.2-3.7,3.7-4.4Z"/>
    <path class="cls-21" d="M93.9,21c1.5-.6,3.3-.5,5.6.4,2.3.9,4.9,2.7,7.8,5.4,5.8,5.3,12.4,13.8,19.4,25,13.9,22.3,29.1,54.8,42.1,92.1,13,37.3,21.5,72.3,24.6,98.7,1.5,13.2,1.8,24.2.6,32.1-.6,4-1.5,7.1-2.7,9.4-1.2,2.2-2.5,3.5-4,4.1-1.5.6-3.3.5-5.6-.4-2.3-.9-4.9-2.7-7.8-5.4-5.8-5.3-12.4-13.8-19.4-25-13.9-22.3-29.1-54.8-42.1-92.1-13-37.3-21.5-72.3-24.6-98.7-1.5-13.2-1.8-24.2-.6-32.1.6-4,1.5-7.1,2.7-9.4,1.2-2.3,2.5-3.5,4-4.1Z"/>
    <path class="cls-7" d="M105.2,16.1c1.5-.4,3.3-.2,5.5.9,2.2,1.1,4.7,3.2,7.4,6.1,5.3,5.8,11.2,14.9,17.2,26.7,12,23.5,24.4,57.2,34.2,95.6,9.9,38.4,15.3,74,16.2,100.6.4,13.3-.3,24.2-2.1,32.1-.9,3.9-2.1,6.9-3.5,9.1-1.4,2.1-2.8,3.3-4.3,3.7-1.5.4-3.3.2-5.5-.9-2.2-1.1-4.7-3.2-7.4-6.1-5.3-5.8-11.2-14.9-17.2-26.7-12-23.5-24.4-57.2-34.2-95.6-9.9-38.4-15.3-74-16.2-100.6-.4-13.3.3-24.2,2.1-32.1.9-3.9,2.1-6.9,3.5-9.1,1.4-2.1,2.8-3.3,4.3-3.7Z"/>
    <path class="cls-8" d="M116.9,12.3c1.5-.3,3.3.1,5.4,1.4,2.1,1.3,4.4,3.6,6.8,6.7,4.8,6.3,9.9,15.9,14.9,28.1,10,24.5,19.5,59.2,26.1,98.3,6.6,39.1,9.1,75.1,7.7,101.7-.7,13.3-2.3,24.1-4.8,31.8-1.2,3.8-2.7,6.7-4.2,8.7-1.5,2-3.1,3-4.6,3.3-1.5.3-3.3-.1-5.4-1.4-2.1-1.3-4.4-3.6-6.8-6.7-4.8-6.3-9.9-15.9-14.9-28.1-10-24.5-19.5-59.2-26.1-98.3-6.6-39.1-9.1-75.1-7.7-101.7.7-13.3,2.3-24.1,4.8-31.8,1.2-3.8,2.7-6.7,4.2-8.7,1.5-2,3.1-3,4.6-3.3Z"/>
    <path class="cls-11" d="M128.7,9.5c1.5-.1,3.3.4,5.3,1.9,2,1.5,4.1,4,6.2,7.3,4.3,6.7,8.6,16.7,12.5,29.4,7.9,25.3,14.5,60.7,17.8,100.3,3.3,39.6,2.8,75.7-.8,102-1.8,13.2-4.3,23.8-7.4,31.2-1.6,3.7-3.2,6.5-4.9,8.3-1.7,1.9-3.3,2.7-4.9,2.8-1.5.1-3.3-.4-5.3-1.9-2-1.5-4.1-4-6.2-7.3-4.3-6.7-8.6-16.7-12.5-29.4-7.9-25.3-14.5-60.7-17.8-100.3-3.3-39.6-2.8-75.7.8-102,1.8-13.2,4.3-23.8,7.4-31.2,1.6-3.7,3.2-6.5,4.9-8.3,1.7-1.9,3.3-2.7,4.9-2.8Z"/>
    <path class="cls-19" d="M140.6,7.8c1.6,0,3.2.7,5.1,2.4,1.9,1.7,3.7,4.3,5.6,7.9,3.7,7.1,7.1,17.4,10,30.4,5.8,25.9,9.3,61.8,9.3,101.5s-3.6,75.6-9.3,101.5c-2.9,13-6.3,23.3-10,30.4-1.9,3.5-3.7,6.2-5.6,7.9-1.8,1.7-3.5,2.4-5.1,2.4s-3.2-.7-5.1-2.4c-1.9-1.7-3.7-4.3-5.6-7.9-3.7-7.1-7.1-17.4-10-30.4-5.8-25.9-9.3-61.8-9.3-101.5s3.6-75.6,9.3-101.5c2.9-13,6.3-23.3,10-30.4,1.9-3.5,3.7-6.2,5.6-7.9,1.8-1.7,3.5-2.4,5.1-2.4Z"/>
    <path class="cls-12" d="M152.5,7.2c1.5.1,3.2,1,4.9,2.8,1.7,1.9,3.4,4.6,4.9,8.3,3.1,7.4,5.6,18,7.4,31.2,3.6,26.3,4.1,62.4.8,102-3.3,39.6-9.9,75-17.8,100.3-4,12.7-8.2,22.7-12.5,29.4-2.1,3.4-4.2,5.8-6.2,7.3-2,1.5-3.7,2.1-5.3,1.9-1.5-.1-3.2-1-4.9-2.8-1.7-1.9-3.4-4.6-4.9-8.3-3.1-7.4-5.6-18-7.4-31.2-3.6-26.3-4.1-62.4-.8-102,3.3-39.6,9.9-75,17.8-100.3,4-12.7,8.2-22.7,12.5-29.4,2.1-3.4,4.2-5.8,6.2-7.3,2-1.5,3.7-2.1,5.3-1.9Z"/>
    <path class="cls-17" d="M164.3,7.7c1.5.3,3.1,1.3,4.6,3.3,1.5,2,3,4.9,4.2,8.7,2.5,7.6,4.1,18.5,4.8,31.8,1.4,26.6-1.1,62.6-7.7,101.7-6.6,39.1-16.1,73.8-26.1,98.3-5,12.3-10.1,21.8-14.9,28.1-2.4,3.1-4.7,5.4-6.8,6.7-2.1,1.3-3.9,1.7-5.4,1.4-1.5-.3-3.1-1.3-4.6-3.3-1.5-2-3-4.9-4.2-8.7-2.5-7.6-4.1-18.5-4.8-31.8-1.4-26.6,1.1-62.6,7.7-101.7,6.6-39.1,16.1-73.8,26.1-98.3,5-12.3,10.1-21.8,14.9-28.1,2.4-3.1,4.7-5.4,6.8-6.7,2.1-1.3,3.9-1.7,5.4-1.4Z"/>
    <path class="cls-3" d="M175.9,9.2c1.5.4,3,1.6,4.3,3.7,1.4,2.1,2.5,5.2,3.5,9.1,1.8,7.8,2.5,18.8,2.1,32.1-.9,26.6-6.3,62.2-16.2,100.6-9.9,38.4-22.2,72.1-34.2,95.6-6,11.8-11.9,20.8-17.2,26.7-2.7,2.9-5.1,4.9-7.4,6.1-2.2,1.1-4,1.4-5.5.9-1.5-.4-3-1.6-4.3-3.7-1.4-2.1-2.5-5.2-3.5-9.1-1.8-7.8-2.5-18.8-2.1-32.1.9-26.6,6.3-62.2,16.2-100.6,9.9-38.4,22.2-72.1,34.2-95.6,6-11.8,11.9-20.8,17.2-26.7,2.7-2.9,5.1-4.9,7.4-6.1,2.2-1.1,4-1.4,5.5-.9Z"/>
    <path class="cls-4" d="M187.3,11.8c1.5.6,2.8,1.8,4,4.1,1.2,2.3,2.1,5.4,2.7,9.4,1.2,8,1,18.9-.6,32.1-3.1,26.4-11.5,61.4-24.6,98.7-13,37.3-28.2,69.8-42.1,92.1-7,11.2-13.6,19.7-19.4,25-2.9,2.7-5.5,4.4-7.8,5.4-2.3.9-4.1,1-5.6.4-1.5-.6-2.8-1.8-4-4.1-1.2-2.3-2.1-5.4-2.7-9.4-1.2-8-1-18.9.6-32.1,3.1-26.4,11.5-61.4,24.6-98.7,13-37.3,28.2-69.8,42.1-92.1,7-11.2,13.6-19.7,19.4-25,2.9-2.7,5.5-4.4,7.8-5.4,2.3-.9,4.1-1,5.6-.4Z"/>
    <path class="cls-14" d="M198.3,15.4c1.4.7,2.7,2.1,3.7,4.4,1,2.4,1.6,5.6,1.9,9.6.5,8-.6,18.9-3.3,32-5.3,26-16.6,60.1-32.7,96.1-16.1,36-33.9,67-49.7,87.9-7.9,10.5-15.2,18.4-21.4,23.1-3.1,2.4-5.9,3.9-8.3,4.7-2.4.7-4.2.6-5.6,0-1.4-.7-2.7-2.1-3.7-4.4-1-2.4-1.6-5.6-1.9-9.6-.5-8,.6-18.9,3.3-32,5.3-26,16.6-60.1,32.7-96.1,16.1-36,33.9-67,49.7-87.9,7.9-10.5,15.2-18.4,21.4-23.1,3.1-2.4,5.9-3.9,8.3-4.7,2.4-.7,4.2-.6,5.6,0Z"/>
    <path class="cls-28" d="M208.8,20c1.4.8,2.5,2.3,3.3,4.7.8,2.4,1.2,5.7,1.1,9.7-.2,8.1-2.2,18.8-5.9,31.5-7.4,25.4-21.6,58.4-40.6,92.8-19.1,34.4-39.4,63.6-56.8,83.1-8.7,9.7-16.6,16.9-23.2,21.1-3.3,2.1-6.2,3.4-8.6,3.9-2.4.5-4.2.2-5.6-.6-1.4-.8-2.5-2.3-3.3-4.7-.8-2.4-1.2-5.7-1.1-9.7.2-8.1,2.2-18.8,5.9-31.5,7.4-25.4,21.6-58.4,40.6-92.8,19.1-34.4,39.4-63.6,56.8-83.1,8.7-9.7,16.6-16.9,23.2-21.1,3.3-2.1,6.2-3.4,8.6-3.9,2.4-.5,4.2-.2,5.6.6Z"/>
    <path class="cls-20" d="M218.9,25.5c1.3.9,2.3,2.5,2.9,5,.6,2.5.7,5.8.3,9.8-.8,8-3.8,18.5-8.5,30.9-9.5,24.7-26.4,56.2-48.2,88.7-21.9,32.5-44.6,59.8-63.5,77.6-9.5,8.9-18,15.4-24.9,18.9-3.5,1.8-6.4,2.8-8.9,3.1-2.4.3-4.2-.1-5.5-1.1-1.3-.9-2.3-2.5-2.9-5-.6-2.5-.7-5.8-.3-9.8.8-8,3.8-18.5,8.5-30.9,9.5-24.7,26.4-56.2,48.2-88.7,21.9-32.5,44.6-59.8,63.5-77.6,9.5-8.9,18-15.4,24.9-18.9,3.5-1.8,6.4-2.8,8.9-3.1,2.4-.3,4.2.1,5.5,1.1Z"/>
    <path class="cls-15" d="M228.3,31.9c1.2,1.1,2.1,2.8,2.4,5.3.4,2.5.2,5.8-.6,9.8-1.5,7.9-5.3,18.1-11.1,30-11.6,23.7-31,53.6-55.5,84-24.5,30.4-49.4,55.5-69.8,71.5-10.2,8-19.2,13.7-26.4,16.6-3.6,1.5-6.7,2.2-9.1,2.3-2.5,0-4.2-.5-5.4-1.6-1.2-1.1-2.1-2.8-2.5-5.3-.4-2.5-.2-5.8.6-9.8,1.5-7.9,5.3-18.1,11.1-30,11.6-23.7,31-53.6,55.5-84,24.5-30.4,49.4-55.5,69.8-71.5,10.2-8,19.2-13.7,26.4-16.6,3.6-1.5,6.7-2.2,9.1-2.3,2.5,0,4.2.5,5.4,1.6Z"/>
    <path class="cls-26" d="M237.1,39.1c1.1,1.2,1.9,2.9,2,5.5.2,2.6-.3,5.8-1.4,9.7-2.2,7.7-6.8,17.6-13.6,28.8-13.5,22.6-35.3,50.6-62.3,78.7-27,28.1-53.9,50.8-75.5,64.9-10.8,7-20.3,11.9-27.7,14.1-3.7,1.1-6.8,1.6-9.3,1.4-2.5-.2-4.2-.9-5.3-2.1-1.1-1.2-1.9-2.9-2-5.5-.2-2.6.3-5.8,1.4-9.7,2.2-7.7,6.8-17.6,13.6-28.8,13.5-22.6,35.3-50.6,62.3-78.7,27-28.1,53.9-50.8,75.5-64.9,10.8-7,20.3-11.9,27.7-14.1,3.7-1.1,6.8-1.6,9.3-1.4,2.5.2,4.2.9,5.3,2.1Z"/>
    <path class="cls-5" d="M245.1,47.1c1,1.3,1.6,3.1,1.5,5.7,0,2.6-.8,5.8-2.2,9.5-2.8,7.5-8.2,16.9-15.9,27.5-15.3,21.2-39.4,47.2-68.6,72.7-29.2,25.5-57.9,45.7-80.6,57.8-11.4,6-21.2,10-28.8,11.6-3.8.8-6.9,1-9.4.6-2.4-.4-4.1-1.3-5.1-2.6-1-1.3-1.6-3.1-1.5-5.7,0-2.6.8-5.8,2.2-9.5,2.8-7.5,8.2-16.9,15.9-27.5,15.3-21.2,39.4-47.2,68.6-72.7,29.2-25.5,57.9-45.7,80.6-57.8,11.4-6,21.2-10,28.8-11.6,3.8-.8,6.9-1,9.4-.6,2.4.4,4.1,1.3,5.1,2.6Z"/>
    <path class="cls-18" d="M252.3,55.8c.9,1.4,1.3,3.3,1.1,5.8-.3,2.6-1.3,5.7-3,9.3-3.4,7.2-9.6,16.1-18.2,25.9-17.1,19.8-43.2,43.4-74.5,66.2-31.2,22.8-61.5,40.3-85.2,50.3-11.9,5-21.9,8-29.6,8.9-3.8.4-7,.3-9.4-.3-2.4-.6-3.9-1.7-4.9-3-.9-1.4-1.3-3.3-1.1-5.8.3-2.6,1.3-5.7,3-9.3,3.4-7.2,9.6-16.1,18.2-25.9,17.1-19.8,43.2-43.4,74.5-66.2,31.2-22.8,61.5-40.3,85.2-50.3,11.9-5,21.9-8,29.6-8.9,3.8-.4,7-.3,9.4.3,2.4.6,3.9,1.7,4.9,3Z"/>
    <path class="cls-27" d="M258.7,65.1c1.6,2.9,1,7.8-3.2,14.8-4,6.9-10.9,15.1-20.3,24.2-18.7,18.1-46.7,39.3-79.7,59.2-33,19.9-64.6,34.6-89,42.3-12.2,3.9-22.5,6-30.2,6.2-7.9.2-12.3-1.6-13.9-4.6-1.6-2.9-1-7.8,3.2-14.8,4-6.9,10.9-15.1,20.3-24.2,18.7-18.1,46.7-39.3,79.7-59.2,33-19.9,64.6-34.6,89-42.3,12.2-3.9,22.5-6,30.2-6.2,7.9-.2,12.3,1.6,13.9,4.6Z"/>
    <path class="cls-16" d="M264.2,75c1.4,3.1.3,7.9-4.4,14.5-4.6,6.5-12.1,14.1-22.2,22.3-20.1,16.4-49.8,34.9-84.4,51.7-34.6,16.8-67.3,28.6-92.2,34.1-12.5,2.8-22.9,3.9-30.6,3.4-7.9-.5-12.1-2.8-13.5-5.8-1.4-3.1-.3-7.9,4.4-14.5,4.6-6.5,12.1-14.1,22.2-22.3,20.1-16.4,49.8-34.9,84.4-51.7,34.5-16.8,67.3-28.6,92.2-34.1,12.5-2.8,22.9-3.9,30.6-3.4,7.9.5,12.1,2.8,13.5,5.8Z"/>
    <path class="cls-22" d="M268.8,85.3c1.1,3.2-.4,7.9-5.6,14.1-5.1,6-13.3,12.9-24,20.2-21.4,14.5-52.5,30.3-88.4,43.8-35.8,13.6-69.4,22.4-94.7,25.6-12.7,1.6-23.2,1.8-30.8.6-7.8-1.2-11.8-3.8-13-7-1.1-3.2.4-7.9,5.6-14.1,5.1-6,13.3-12.9,24-20.2,21.4-14.5,52.5-30.3,88.4-43.8,35.8-13.6,69.4-22.4,94.7-25.6,12.7-1.6,23.2-1.8,30.8-.6,7.8,1.2,11.8,3.8,12.9,7Z"/>
    <path class="cls-25" d="M272.4,95.9c.8,3.3-1,7.8-6.7,13.5-5.6,5.6-14.3,11.7-25.6,17.9-22.5,12.5-54.9,25.4-91.7,35.7-36.8,10.3-71,16-96.5,16.9-12.8.5-23.2-.3-30.7-2.2-7.7-1.9-11.5-4.9-12.3-8.2-.8-3.3,1-7.8,6.7-13.5,5.6-5.6,14.3-11.7,25.6-17.9,22.5-12.5,54.9-25.4,91.7-35.7,36.8-10.3,71-16,96.5-16.9,12.8-.5,23.2.3,30.7,2.2,7.7,1.9,11.5,4.9,12.3,8.2Z"/>
    <path class="cls-13" d="M274.9,106.9c.6,3.4-1.7,7.7-7.8,12.9-6,5-15.2,10.3-27,15.5-23.5,10.4-56.8,20.3-94.3,27.2-37.5,6.9-72.1,9.5-97.6,8-12.8-.7-23.1-2.4-30.4-5-7.5-2.6-11-5.9-11.6-9.3-.6-3.4,1.7-7.7,7.8-12.9,6-5,15.2-10.3,27-15.5,23.5-10.4,56.8-20.3,94.3-27.2,37.5-6.9,72.1-9.5,97.6-8,12.8.7,23.1,2.4,30.4,5,7.5,2.6,11,5.9,11.6,9.3Z"/>
    <path class="cls-23" d="M276.5,118c.3,3.4-2.3,7.5-8.9,12.1-6.4,4.5-16,8.9-28.2,13-24.3,8.2-58.3,15.1-96.2,18.5-38,3.5-72.6,2.9-97.9-.8-12.6-1.9-22.8-4.5-29.9-7.7-7.2-3.3-10.5-6.9-10.8-10.3-.3-3.4,2.3-7.5,8.9-12.1,6.4-4.5,16-8.9,28.2-13,24.3-8.2,58.3-15.1,96.2-18.5,38-3.5,72.6-2.9,97.9.8,12.6,1.9,22.8,4.5,29.9,7.7,7.2,3.3,10.5,6.9,10.8,10.3Z"/>
    <path class="cls-9" d="M277,129.3c0,3.4-2.9,7.3-9.9,11.2-6.8,3.9-16.7,7.4-29.1,10.4-24.9,6-59.3,9.7-97.4,9.7s-72.6-3.7-97.4-9.7c-12.4-3-22.4-6.5-29.1-10.4-6.9-3.9-9.9-7.8-9.9-11.2s2.9-7.3,9.9-11.2c6.8-3.9,16.7-7.4,29.1-10.4,24.9-6,59.3-9.7,97.4-9.7s72.6,3.7,97.4,9.7c12.4,3,22.4,6.5,29.1,10.4,6.9,3.9,9.9,7.8,9.9,11.2Z"/>
  </g>
</svg>