<svg width="24" height="24" viewBox="0 0 24 24" fill="none" xmlns="http://www.w3.org/2000/svg">
<path d="M8.11998 14.7099L12 10.8299L15.88 14.7099C15.9726 14.8025 16.0825 14.8759 16.2034 14.9261C16.3244 14.9762 16.454 15.0019 16.585 15.0019C16.7159 15.0019 16.8456 14.9762 16.9665 14.9261C17.0875 14.8759 17.1974 14.8025 17.29 14.7099C17.3826 14.6173 17.456 14.5074 17.5061 14.3865C17.5562 14.2655 17.582 14.1359 17.582 14.0049C17.582 13.874 17.5562 13.7443 17.5061 13.6234C17.456 13.5024 17.3826 13.3925 17.29 13.2999L12.7 8.70992C12.6075 8.61722 12.4976 8.54367 12.3766 8.49349C12.2556 8.44331 12.1259 8.41748 11.995 8.41748C11.864 8.41748 11.7343 8.44331 11.6134 8.49349C11.4924 8.54367 11.3825 8.61722 11.29 8.70992L6.69998 13.2999C6.60727 13.3924 6.53372 13.5023 6.48354 13.6233C6.43336 13.7443 6.40753 13.874 6.40753 14.0049C6.40753 14.1359 6.43336 14.2656 6.48354 14.3865C6.53372 14.5075 6.60727 14.6174 6.69998 14.7099C7.08998 15.0899 7.72998 15.0999 8.11998 14.7099Z" fill="#545956"/>
</svg>
